Coordinates
version=1
nRows=27
nColumns=12
inDegrees=yes

Units are S.I. units (second, meters, Newtons, ...)
Angles are in degrees

endheader
time	SC_y	SC_z	SC_x	AC_y	AC_z	AC_x	GH_y	GH_z	GH_yy	EL_x	PS_y
       0.0              -11.78          13.38          15.08          48.43          8.888          5.477          68.11          86.91          115.5          75.44          75.37
 0.0003182              -11.78          13.38          15.08          48.43          8.885          5.474           68.1          86.91          115.5          75.45          75.37
 0.0006364              -11.78          13.37          15.09          48.43          8.882          5.472          68.08          86.91          115.5          75.45          75.38
 0.0009546              -11.79          13.37          15.09          48.43          8.879          5.469          68.07           86.9          115.5          75.46          75.39
  0.001273              -11.79          13.37           15.1          48.44          8.875          5.465          68.05           86.9          115.5          75.47           75.4
  0.001591              -11.79          13.37           15.1          48.44          8.871          5.462          68.03           86.9          115.5          75.47          75.42
  0.001909              -11.79          13.37          15.11          48.44          8.868          5.458          68.02           86.9          115.5          75.48          75.43
  0.002227               -11.8          13.37          15.12          48.45          8.863          5.455           68.0          86.89          115.5          75.49          75.44
  0.002546               -11.8          13.37          15.12          48.45          8.859           5.45          67.97          86.89          115.5           75.5          75.46
  0.002864               -11.8          13.37          15.13          48.45          8.854          5.446          67.95          86.89          115.5          75.51          75.47
  0.003182              -11.81          13.37          15.14          48.46          8.849          5.441          67.93          86.88          115.5          75.52          75.49
    0.0035              -11.81          13.36          15.15          48.46          8.843          5.436           67.9          86.88          115.5          75.53          75.51
  0.003819              -11.82          13.36          15.16          48.47          8.837          5.431          67.87          86.87          115.5          75.54          75.52
  0.004137              -11.82          13.36          15.17          48.47          8.831          5.425          67.84          86.87          115.5          75.55          75.55
  0.004455              -11.83          13.36          15.18          48.48          8.824          5.418           67.8          86.86          115.5          75.56          75.57
  0.004773              -11.83          13.36           15.2          48.48          8.816          5.411          67.77          86.86          115.5          75.58          75.59
  0.005091              -11.84          13.36          15.21          48.49          8.808          5.404          67.73          86.85          115.5          75.59          75.62
   0.00541              -11.84          13.35          15.22           48.5          8.799          5.395          67.68          86.85          115.5          75.61          75.65
  0.005728              -11.85          13.35          15.24          48.51          8.789          5.386          67.64          86.84          115.5          75.63          75.68
  0.006046              -11.86          13.35          15.26          48.51          8.779          5.376          67.59          86.83          115.5          75.65          75.71
  0.006364              -11.87          13.34          15.28          48.52          8.767          5.366          67.53          86.83          115.5          75.67          75.75
  0.006682              -11.88          13.34           15.3          48.54          8.754          5.354          67.47          86.82          115.5           75.7          75.79
  0.007001              -11.89          13.34          15.33          48.55           8.74           5.34           67.4          86.81          115.5          75.72          75.84
  0.007319               -11.9          13.33          15.35          48.56          8.724          5.326          67.32           86.8          115.5          75.75          75.89
  0.007637              -11.91          13.33          15.38          48.57          8.706          5.309          67.23          86.78          115.5          75.79          75.94
  0.007955              -11.93          13.32          15.41          48.59          8.686          5.291          67.14          86.77          115.6          75.83          76.01
  0.008273              -11.94          13.32          15.45          48.61          8.664          5.271          67.03          86.75          115.6          75.87          76.08
